<svg version="1.1" id="Layer_1" xmlns="http://www.w3.org/2000/svg" xmlns:xlink="http://www.w3.org/1999/xlink" x="0px" y="0px"
	 width="100%" viewBox="0 0 960 1024" enable-background="new 0 0 960 1024" xml:space="preserve">
<path fill="#000000" opacity="1.000000" stroke="none" 
	d="
M1.000000,972.468628 
	C10.392406,962.984253 18.094009,952.453613 26.986984,942.986877 
	C30.634800,939.103699 34.049450,935.000244 37.536083,930.967468 
	C38.582226,929.757446 40.192352,928.618896 38.778179,926.692322 
	C32.535194,918.187134 34.497326,908.936096 36.558445,899.811707 
	C38.874630,889.558167 43.918606,880.421326 50.327381,872.303040 
	C76.440727,839.223572 102.887245,806.407288 129.156540,773.450623 
	C147.327576,750.653870 165.307922,727.704529 183.557358,704.971008 
	C205.042114,678.207336 226.992752,651.813965 248.247452,624.870361 
	C269.292145,598.193054 290.382751,571.505371 310.201935,543.923218 
	C324.781006,523.633728 329.470154,500.562134 321.204224,476.111053 
	C314.703552,456.881622 307.127014,438.009766 303.690674,417.846283 
	C298.856720,389.482147 299.113129,361.159485 303.980316,332.857727 
	C309.473053,300.918549 321.090942,271.293427 338.727020,244.156723 
	C364.421021,204.621338 398.760590,175.016922 441.696289,155.303528 
	C463.837952,145.137436 486.919189,138.496613 510.993927,135.259430 
	C558.626038,128.854584 604.275818,135.478622 647.592163,156.653839 
	C688.639160,176.719696 721.519287,206.157242 747.024658,243.932602 
	C748.384033,245.945923 749.957764,246.839310 752.140137,247.404541 
	C767.527344,251.389786 781.222107,258.743774 793.849243,268.294495 
	C797.016724,270.690277 797.820496,273.883301 798.145203,277.425049 
	C799.467346,291.844513 800.969910,306.252747 801.936096,320.696564 
	C802.248413,325.365662 804.192566,326.511261 808.206909,325.842743 
	C815.526428,324.623871 822.789734,324.594177 829.992493,326.629944 
	C841.606750,329.912659 848.043396,340.019440 845.037537,350.979095 
	C842.519104,360.161407 834.646301,362.970551 826.592407,365.105042 
	C822.258850,366.253571 817.784790,366.871368 813.374817,367.732300 
	C807.001038,368.976624 806.526428,369.398621 807.275757,376.020569 
	C808.585510,387.595428 810.132324,399.143555 811.594604,410.700989 
	C812.074768,414.496490 812.687134,418.277100 813.086182,422.080536 
	C813.707764,428.006256 811.728455,432.802856 806.869263,436.465454 
	C797.248413,443.717041 786.888062,449.700531 775.923035,454.620941 
	C773.583191,455.670929 772.272583,457.049744 771.391174,459.442017 
	C759.009521,493.045563 740.541565,522.684204 714.816650,547.852417 
	C686.421753,575.632996 653.443909,595.873352 615.760132,607.889832 
	C582.912354,618.364197 549.038147,622.713440 514.683167,617.380920 
	C488.138763,613.260742 464.160065,618.572449 442.125183,633.480347 
	C431.643585,640.571838 423.985901,650.593018 415.922821,660.078979 
	C393.378326,686.601746 371.085480,713.338562 348.724457,740.016968 
	C309.879608,786.361938 271.449982,833.048889 233.843048,880.405090 
	C214.058029,905.319092 193.673294,929.724426 172.799194,953.725708 
	C166.703201,960.734863 162.067596,968.981567 154.306808,974.591431 
	C143.210068,982.612671 130.862793,986.971924 117.334518,988.360352 
	C114.009476,988.701599 111.573708,987.165588 109.233276,985.189941 
	C99.558090,977.022522 89.885429,968.852112 80.202576,960.693787 
	C78.303551,959.093689 76.363365,957.542542 73.943420,955.560303 
	C69.766060,960.581848 65.712898,965.348328 61.774288,970.207581 
	C47.295368,988.070740 32.399979,1005.570862 16.639137,1022.323547 
	C16.079815,1022.918152 15.702796,1023.684326 15.120389,1024.685303 
	C10.364022,1025.000000 5.728045,1025.000000 1.000000,1025.000000 
	C1.000000,1007.645874 1.000000,990.291565 1.000000,972.468628 
M497.982513,235.992538 
	C497.982513,235.992538 498.043915,236.062714 498.199310,236.780457 
	C501.845459,247.910645 507.660614,258.069427 512.509094,268.660400 
	C513.801392,271.483185 515.667847,272.144196 518.459351,270.110657 
	C523.029053,266.781830 527.590698,263.235748 533.325317,262.167297 
	C537.414490,261.405426 538.080017,259.412659 536.681030,255.818207 
	C533.584106,247.860840 532.936401,239.652374 534.635742,231.269943 
	C535.223083,228.372467 534.401306,225.981903 531.944092,224.271179 
	C529.246643,222.393250 527.450623,219.847672 526.283691,216.827042 
	C524.634644,212.558167 525.993408,209.725449 530.261475,208.277924 
	C534.014465,207.005081 537.828979,206.884079 541.562012,208.027054 
	C544.601379,208.957657 546.676636,208.210556 549.204956,206.210953 
	C562.988770,195.309433 578.196411,191.624603 595.020996,198.465302 
	C611.703369,205.248184 621.530090,217.986877 622.725403,235.600082 
	C623.377258,245.205902 624.117493,253.280075 632.652954,259.122070 
	C635.109619,260.803497 636.212402,264.098450 634.659851,267.247101 
	C633.143616,270.322327 630.372803,271.929443 627.013245,272.102844 
	C623.694031,272.274170 620.255066,272.542725 617.049927,271.885162 
	C613.189941,271.093262 610.271118,272.151978 607.343506,274.400116 
	C602.013123,278.493286 596.157043,281.503723 589.608032,283.318695 
	C581.270203,285.629395 573.178284,284.957489 564.995850,282.624298 
	C560.458191,281.330383 558.555603,282.873474 559.945801,286.632172 
	C565.122009,300.627197 564.807434,315.201202 563.966064,329.622437 
	C563.499084,337.627380 566.658875,342.737640 571.967346,347.754700 
	C601.927124,376.069702 635.741882,399.129181 671.087097,419.980255 
	C682.393005,426.649902 694.673706,431.649658 708.253906,432.194794 
	C715.728333,432.494781 723.191223,433.172089 730.647339,433.817535 
	C738.733521,434.517578 741.446289,437.794830 740.233032,445.539246 
	C739.328613,451.312317 737.717957,456.958191 735.304321,462.269043 
	C718.476807,499.296722 693.718323,529.986938 660.779297,553.831238 
	C641.186279,568.014465 619.306458,577.645691 596.228455,584.889221 
	C578.395630,590.486450 560.266113,593.464478 541.682434,592.934326 
	C525.692993,592.478088 509.935028,589.701111 494.361694,586.001404 
	C492.691711,585.604736 490.931061,584.652588 489.221497,585.977539 
	C489.252777,587.862061 490.705261,588.250000 491.924927,588.496887 
	C504.145111,590.970886 516.113647,594.711548 528.764343,594.952759 
	C551.330200,595.382935 573.509399,593.691162 595.576843,588.096375 
	C621.097961,581.625977 644.617249,571.202515 666.645020,557.082153 
	C687.187378,543.914001 702.322021,525.396484 717.344788,506.572662 
	C734.240234,485.402344 744.277954,461.123840 751.777161,435.587982 
	C753.431274,429.955353 756.034668,424.157928 755.329895,418.131073 
	C751.212463,382.922211 746.614441,347.771484 743.500977,312.445740 
	C742.806030,304.561188 743.071411,296.476410 739.779358,288.896759 
	C732.548706,272.248932 722.562927,257.265320 711.281189,243.260605 
	C693.771667,221.524826 672.737549,203.543747 648.356567,189.943390 
	C594.636230,159.976746 538.046143,154.409805 479.346710,172.272812 
	C442.117554,183.602142 409.922729,202.897690 384.371399,233.083191 
	C364.240509,256.865173 347.036011,281.890991 338.145447,312.197327 
	C331.730103,334.066010 327.298492,356.150726 327.440094,378.953308 
	C327.592041,403.416840 331.344818,427.357056 339.539276,450.500305 
	C342.599396,459.142944 345.567169,467.842316 351.762848,474.912476 
	C352.660278,475.936584 353.297180,477.620514 355.588989,476.663116 
	C352.412018,469.594452 347.525024,463.555298 344.722473,456.426697 
	C334.215088,429.699921 329.728882,401.838348 330.331085,373.287872 
	C330.821442,350.041565 334.972534,327.197205 342.753357,305.258087 
	C355.107086,270.425201 375.162598,240.756088 404.640839,218.092255 
	C418.037048,207.792831 433.309418,202.954742 450.559509,205.701752 
	C458.711914,207.000000 465.507690,211.039398 472.492676,214.871490 
	C478.442993,218.136002 484.757355,220.835266 489.323486,226.178452 
	C492.137207,229.471069 495.049744,232.679245 497.982513,235.992538 
M632.534729,565.039551 
	C649.279663,556.532104 664.467224,545.751770 678.150146,532.950317 
	C690.089966,521.779602 700.814209,509.467957 710.108398,495.984314 
	C717.486328,485.280609 724.222412,474.183289 729.627014,462.326813 
	C730.305542,460.838165 731.425781,459.099854 729.848267,457.739990 
	C728.280762,456.388763 726.751282,457.870209 725.295410,458.575806 
	C722.003113,460.171509 718.843079,462.173401 715.396667,463.296600 
	C688.999817,471.899689 662.912781,469.965790 637.134644,460.529175 
	C632.818542,458.949188 628.599426,457.104156 623.934692,455.219696 
	C623.834290,456.583862 623.655823,457.381439 623.737305,458.151459 
	C624.534058,465.678802 630.140869,472.164307 628.539917,480.236969 
	C628.468262,480.598236 628.971680,481.113678 629.276367,481.503296 
	C633.050964,486.329865 633.502380,491.839966 632.614685,497.627167 
	C631.389832,505.612610 632.492493,513.212952 636.321167,520.378601 
	C637.164795,521.957458 638.650513,523.806763 636.735229,525.292053 
	C634.871643,526.737305 633.349304,524.846191 631.945740,523.789551 
	C621.788574,516.142944 616.138550,505.688538 612.631531,493.675629 
	C610.442688,486.177765 607.839478,478.682892 599.809021,474.956238 
	C585.819458,468.464172 570.702393,465.576233 556.087219,461.086792 
	C551.994995,459.829773 551.079590,462.079102 551.354187,465.566284 
	C551.588562,468.543457 552.537354,471.455627 552.081604,474.497589 
	C551.256287,480.005554 547.173340,482.031494 542.293396,479.371735 
	C540.483643,478.385254 539.172424,476.923889 537.909729,475.357300 
	C531.654358,467.595886 529.413513,458.123322 526.699890,448.877136 
	C525.831787,445.919006 524.883911,443.241577 522.177124,441.414795 
	C506.862244,431.079102 496.281158,417.176880 490.739441,399.494202 
	C490.153625,397.624939 489.696259,395.602417 487.425140,394.538971 
	C486.681183,395.062592 485.850769,395.572784 485.105682,396.186523 
	C483.360291,397.624237 482.017151,400.175049 479.324921,399.389374 
	C476.373993,398.528259 476.601257,395.492554 476.056702,393.142120 
	C473.733429,383.113953 475.355103,373.307220 477.762421,363.531158 
	C479.789459,355.299438 483.761902,347.706848 485.044006,339.188049 
	C487.563019,322.451019 492.430206,306.415222 501.286652,291.819305 
	C502.620667,289.620758 502.686676,287.588593 502.124939,285.174744 
	C499.036804,271.905090 495.898956,258.642273 493.771484,245.171143 
	C493.029297,240.471573 491.280151,236.317947 488.102051,232.639191 
	C478.914917,222.004959 467.812408,214.957413 453.942352,211.665710 
	C438.851379,208.084290 424.820190,210.559708 412.392029,218.828125 
	C384.686188,237.260773 366.030212,263.465637 352.478821,293.342987 
	C343.700256,312.697418 338.738190,333.246582 336.497070,354.430634 
	C331.983124,397.097961 337.726715,437.759430 359.759888,475.310028 
	C361.272278,477.887573 363.247253,479.663452 366.194885,480.425934 
	C368.931183,481.133759 371.635956,481.987366 374.311310,482.903259 
	C392.800262,489.232666 410.797424,496.826141 427.034851,507.717987 
	C449.910034,523.062317 467.048553,543.818787 479.560883,568.203613 
	C483.727814,576.324463 488.422791,581.166504 498.210480,582.287476 
	C512.049072,583.872375 525.682434,587.178711 539.708313,587.769592 
	C572.604675,589.155579 602.640808,578.955017 632.534729,565.039551 
M193.226334,862.831726 
	C194.025757,861.588379 195.092087,860.452332 194.808807,858.309143 
	C187.811691,855.587341 180.256897,854.854492 172.692261,854.218933 
	C170.751816,854.055908 169.741165,855.581543 168.777603,856.927551 
	C156.656921,873.858826 143.514267,890.039429 129.472198,905.326050 
	C122.007896,913.451843 120.265999,920.615295 125.562874,929.877686 
	C127.307747,932.928894 127.208481,936.950378 130.712921,939.761841 
	C152.891113,915.288757 172.203201,888.802429 193.226334,862.831726 
M137.228622,875.763977 
	C144.002838,866.701294 150.798004,857.654114 157.525497,848.556885 
	C158.393600,847.382935 159.676285,845.811340 159.467712,844.659119 
	C158.059235,836.879272 155.698151,829.380981 151.514969,820.857483 
	C129.625580,847.695618 109.063881,873.950317 88.526863,901.271301 
	C95.484489,903.556030 101.555542,903.318970 107.323532,904.657593 
	C110.531891,905.402222 112.969795,904.442322 115.243546,901.886719 
	C122.655754,893.555969 130.218307,885.362305 137.228622,875.763977 
M608.484558,456.065979 
	C609.140991,454.368073 609.587341,452.546265 610.499573,450.999146 
	C612.170715,448.164886 611.182800,446.471100 608.678589,444.878357 
	C598.392944,438.336182 589.469238,430.148346 580.809143,421.641327 
	C579.478760,420.334503 578.418701,418.341644 576.016785,418.703308 
	C575.135559,422.032990 574.999634,422.088684 575.752380,423.925537 
	C581.399963,437.707092 587.698792,450.976257 600.995483,459.401489 
	C606.006042,462.576324 606.424744,462.672913 608.484558,456.065979 
M627.714294,260.677917 
	C621.715149,254.505325 619.216980,255.621841 615.899963,266.138184 
	C619.147522,268.634491 622.710388,267.714691 626.228149,266.963348 
	C630.794006,265.988220 631.009644,265.291718 627.714294,260.677917 
M540.924622,215.569550 
	C542.091431,211.341461 538.790588,212.424286 536.816345,212.280746 
	C534.592285,212.119019 531.958008,211.465164 530.925171,214.493958 
	C530.746826,215.016922 531.115417,215.790924 531.373047,216.387817 
	C533.535889,221.398926 536.479614,221.323318 540.924622,215.569550 
M604.136841,419.989288 
	C607.835144,418.642120 608.973022,416.318817 607.071167,412.731506 
	C600.937500,413.952972 599.998779,416.002777 604.136841,419.989288 
z"/>
<path fill="#000000" opacity="1.000000" stroke="none" 
	d="
M542.929382,565.955444 
	C538.455750,569.792725 533.656555,572.481750 528.807495,575.056274 
	C525.886414,576.607178 522.304382,577.432800 519.812988,575.108948 
	C511.754303,567.592224 503.774109,559.805786 503.719421,547.577332 
	C503.666290,535.688660 513.050842,529.272278 524.043579,533.672974 
	C529.450623,535.837524 535.192749,535.118286 540.755798,535.754395 
	C550.423157,536.859619 555.221130,543.226379 552.668335,552.697327 
	C551.172729,558.245972 548.003174,562.577698 542.929382,565.955444 
z"/>
<path fill="#000000" opacity="1.000000" stroke="none" 
	d="
M391.150818,395.339722 
	C388.233978,399.065582 389.297333,403.253937 388.821808,407.443665 
	C382.713531,398.248749 387.320831,383.645691 397.084503,380.182526 
	C398.933838,379.526520 401.196472,378.422211 402.558563,380.468323 
	C404.174805,382.896149 401.532928,384.025543 400.106873,385.059479 
	C396.409485,387.740204 393.323761,390.862030 391.150818,395.339722 
z"/>
<path fill="#000000" opacity="1.000000" stroke="none" 
	d="
M497.950195,235.958939 
	C497.901855,235.760956 497.882721,235.596802 497.870209,235.432159 
	C497.600464,231.881927 498.932129,229.558792 502.774658,229.566238 
	C504.747284,229.570053 506.012146,230.962936 505.524261,232.849762 
	C504.617157,236.357880 502.196777,237.562302 498.372284,236.187393 
	C498.043915,236.062714 497.982513,235.992538 497.950195,235.958939 
z"/>
<path fill="#000000" opacity="1.000000" stroke="none" 
	d="
M650.653992,221.995117 
	C653.179077,221.142578 654.518616,222.068283 654.897400,224.231918 
	C655.156616,225.712830 654.169861,226.707977 652.964294,227.387878 
	C651.843018,228.020248 650.690857,227.941422 649.820129,226.946381 
	C648.301514,225.211044 648.879272,223.630844 650.653992,221.995117 
z"/>
<path fill="#000000" opacity="1.000000" stroke="none" 
	d="
M649.553162,238.493881 
	C651.795349,236.410736 653.420044,236.992462 654.407410,239.296539 
	C655.045044,240.784576 654.185913,242.093918 652.733582,242.329712 
	C650.163757,242.746948 649.108521,241.300964 649.553162,238.493881 
z"/>
<path fill="#000000" opacity="1.000000" stroke="none" 
	d="
M511.567200,223.929489 
	C512.015808,221.675323 513.137390,220.606430 515.053162,221.633423 
	C516.421631,222.367050 516.551819,223.841049 515.462830,224.941711 
	C514.010071,226.410065 512.585571,226.237167 511.567200,223.929489 
z"/>
</svg>